<svg viewBox="0 0 585.958 579.994" xmlns="http://www.w3.org/2000/svg" xmlns:xlink="http://www.w3.org/1999/xlink" width="585.957642" height="579.993652" fill="none" customFrame="#000000">
    <path id="Vector 10" d="M283.867 202.011C259.046 206.487 361.613 89.6671 364.813 81.3728C380.899 39.6736 227.204 -2.72356 221.182 0.1371C187.618 16.0808 177.456 8.44628 156.783 68.6088C135.611 130.22 137.619 153.11 137.675 162.589C137.976 212.98 140.56 210.62 128.334 221.787C102.648 245.25 101.17 234.18 92.0811 244.564C82.9925 254.949 60.4346 283.309 61.0199 299.304C62.4044 337.138 29.4454 343.232 25.0823 346.602C-14.8535 377.456 5.8084 407.109 2.16119 415.569C-0.461593 421.652 81.2218 510.444 82.2569 416.215C82.3129 411.117 60.2084 445.725 75.3867 436.072" stroke="rgb(216,108,44)" stroke-dasharray="15 15 " stroke-width="2" transform="matrix(-0.674427,0.738342,-0.738342,-0.674427,585.958,309.766)" />
</svg>
