<svg viewBox="0 0 674.925 674.295" xmlns="http://www.w3.org/2000/svg" xmlns:xlink="http://www.w3.org/1999/xlink" width="674.925293" height="674.295410" fill="none" customFrame="#000000">
    <path id="Vector 10" d="M369.065 219.767C336.94 225.262 472.209 138.458 476.35 128.276C497.17 77.0883 438.764 43.3925 435.414 19.7489C429.204 -24.0905 311.651 17.4479 243.972 26.4068C217.348 29.9311 189.453 89.7481 175.203 96.5485C103.924 130.564 151.311 155.892 97.8263 183.64C84.3279 190.643 15.9352 206.409 6.77688 221.14C-27.5886 276.414 79.887 319.564 80.6445 339.198C82.4364 385.642 39.7791 393.122 34.1322 397.26C-17.5548 435.134 9.1869 471.534 4.4665 481.919C1.07195 489.387 58.399 479.867 59.7387 364.198C59.8112 357.94 149.803 354.792 175.084 351.134" stroke="rgb(216,108,44)" stroke-dasharray="15 15 " stroke-width="2" transform="matrix(0.594707,-0.803942,0.803942,0.594707,0,386.555)" />
</svg>
