<svg viewBox="0 0 100 100" xmlns="http://www.w3.org/2000/svg" xmlns:xlink="http://www.w3.org/1999/xlink" width="100.000000" height="100.000000" fill="none">
	<rect id="cpu" width="100.000000" height="100.000000" x="0.000000" y="0.000000" fill="rgb(255,255,255)" fill-opacity="0" />
	<path id="Vector" d="M75 16.6666C79.6024 16.6666 83.3334 20.3976 83.3334 25L83.3334 75C83.3334 79.6023 79.6024 83.3333 75 83.3333L25 83.3333C20.3976 83.3333 16.6667 79.6023 16.6667 75L16.6667 25C16.6667 20.3976 20.3976 16.6666 25 16.6666L75 16.6666Z" stroke="rgb(216,108,44)" stroke-linecap="round" stroke-linejoin="round" stroke-width="2" />
	<path id="Vector" d="M62.5 37.5L62.5 62.5L37.5 62.5L37.5 37.5L62.5 37.5Z" stroke="rgb(216,108,44)" stroke-linecap="round" stroke-linejoin="round" stroke-width="2" />
	<path id="Vector" d="M0 0L12.5 0" stroke="rgb(216,108,44)" stroke-linecap="round" stroke-linejoin="round" stroke-width="2" transform="matrix(0,1,-1,0,37.5,4.16663)" />
	<path id="Vector" d="M0 0L12.5 0" stroke="rgb(216,108,44)" stroke-linecap="round" stroke-linejoin="round" stroke-width="2" transform="matrix(0,1,-1,0,62.5,4.16663)" />
	<path id="Vector" d="M0 0L12.5 0" stroke="rgb(216,108,44)" stroke-linecap="round" stroke-linejoin="round" stroke-width="2" transform="matrix(0,1,-1,0,37.5,83.3334)" />
	<path id="Vector" d="M0 0L12.5 0" stroke="rgb(216,108,44)" stroke-linecap="round" stroke-linejoin="round" stroke-width="2" transform="matrix(0,1,-1,0,62.5,83.3334)" />
	<path id="Vector" d="M83.3334 37.5L95.8334 37.5" stroke="rgb(216,108,44)" stroke-linecap="round" stroke-linejoin="round" stroke-width="2" />
	<path id="Vector" d="M83.3334 58.3334L95.8334 58.3334" stroke="rgb(216,108,44)" stroke-linecap="round" stroke-linejoin="round" stroke-width="2" />
	<path id="Vector" d="M4.16663 37.5L16.6666 37.5" stroke="rgb(216,108,44)" stroke-linecap="round" stroke-linejoin="round" stroke-width="2" />
	<path id="Vector" d="M4.16663 58.3334L16.6666 58.3334" stroke="rgb(216,108,44)" stroke-linecap="round" stroke-linejoin="round" stroke-width="2" />
</svg>
